<svg width="30" height="26" viewBox="0 0 30 26" fill="none" xmlns="http://www.w3.org/2000/svg">
<path d="M10 4.33334H9.00024C7.60011 4.33334 6.89953 4.33334 6.36475 4.56949C5.89434 4.77722 5.51217 5.10843 5.27248 5.51612C5 5.97959 5 6.58677 5 7.80022V8.66667M10 4.33334H20M10 4.33334V2.16667M20 4.33334H21.0002C22.4004 4.33334 23.0995 4.33334 23.6342 4.56949C24.1046 4.77722 24.4881 5.10843 24.7278 5.51612C25 5.97914 25 6.58558 25 7.79666V8.66667M20 4.33334V2.16667M5 8.66667V18.2002C5 19.4137 5 20.0201 5.27248 20.4835C5.51217 20.8912 5.89434 21.223 6.36475 21.4308C6.899 21.6667 7.59874 21.6667 8.99614 21.6667H21.0039C22.4013 21.6667 23.1 21.6667 23.6342 21.4308C24.1046 21.223 24.4881 20.8912 24.7278 20.4835C25 20.0205 25 19.415 25 18.2039V8.66667M5 8.66667H25M20 17.3333H20.0025L20.0024 17.3355L20 17.3355V17.3333ZM15 17.3333H15.0025L15.0024 17.3355L15 17.3355V17.3333ZM10 17.3333H10.0025L10.0024 17.3355L10 17.3355V17.3333ZM20.0024 13V13.0022L20 13.0021V13H20.0024ZM15 13H15.0025L15.0024 13.0022L15 13.0021V13ZM10 13H10.0025L10.0024 13.0022L10 13.0021V13Z" stroke="white" stroke-width="2" stroke-linecap="round" stroke-linejoin="round"/>
</svg>
