<svg width="26" height="26" viewBox="0 0 26 26" fill="none" xmlns="http://www.w3.org/2000/svg">
<path d="M16.0003 11L10.667 17L8 14M3 19.8002V8.2002C3 7.08009 3 6.51962 3.21799 6.0918C3.40973 5.71547 3.71547 5.40973 4.0918 5.21799C4.51962 5 5.08009 5 6.2002 5H17.8002C18.9203 5 19.4796 5 19.9074 5.21799C20.2837 5.40973 20.5905 5.71547 20.7822 6.0918C21 6.5192 21 7.07899 21 8.19691V19.8036C21 20.9215 21 21.4805 20.7822 21.9079C20.5905 22.2842 20.2837 22.5905 19.9074 22.7822C19.48 23 18.921 23 17.8031 23H6.19691C5.07899 23 4.5192 23 4.0918 22.7822C3.71547 22.5905 3.40973 22.2842 3.21799 21.9079C3 21.4801 3 20.9203 3 19.8002Z" stroke="black" stroke-width="2" stroke-linecap="round" stroke-linejoin="round"/>
<circle cx="21" cy="5" r="4.25" fill="#FFC800" stroke="black" stroke-width="1.5"/>
</svg>
